<svg xmlns="http://www.w3.org/2000/svg" version="1.1" width="240" height="240">
<path d="M0 0 C79.2 0 158.4 0 240 0 C240 79.2 240 158.4 240 240 C160.8 240 81.6 240 0 240 C0 160.8 0 81.6 0 0 Z " fill="#000000" transform="translate(0,0)"/>
<path d="M0 0 C0 39.6 0 79.2 0 120 C-19 129 -19 129 -20 129 C-20 97.32 -20 65.64 -20 33 C-32.59644676 38.42254167 -32.59644676 38.42254167 -44.75 44.5625 C-46.16759609 45.32361117 -47.58556728 46.08402409 -49.00390625 46.84375 C-50.94230706 47.88868004 -52.87995892 48.93492799 -54.81591797 49.984375 C-56.43342085 50.85565758 -58.06021223 51.70963224 -59.6875 52.5625 C-60.57824219 53.03816406 -61.46898438 53.51382813 -62.38671875 54.00390625 C-66.39406418 55.53136975 -69.6723548 55.48670885 -73.70428467 54.00862122 C-74.62010315 53.54405014 -75.53592163 53.07947906 -76.47949219 52.60083008 C-77.52788269 52.07640823 -78.57627319 51.55198639 -79.65643311 51.01167297 C-80.77527893 50.4367662 -81.89412476 49.86185944 -83.046875 49.26953125 C-84.213255 48.68209641 -85.37963501 48.09466156 -86.58135986 47.48942566 C-89.68016168 45.92860068 -92.77149978 44.35352815 -95.8614502 42.77526855 C-98.97624755 41.18736817 -102.09772088 39.61271542 -105.21875 38.03710938 C-109.81719759 35.71407071 -114.41179688 33.38360938 -119.00292969 31.04614258 C-124.32294291 28.33899917 -129.65766685 25.66280951 -135 23 C-135 15.74 -135 8.48 -135 1 C-131.03609856 1.99097536 -127.76353783 3.49740656 -124.16015625 5.33984375 C-123.46930435 5.68885239 -122.77845245 6.03786102 -122.06666565 6.39744568 C-116.99845604 8.96402411 -111.94930687 11.56772125 -106.89877319 14.16885376 C-103.06319055 16.14061368 -99.22148571 18.10025718 -95.37866211 20.05786133 C-93.39857324 21.07083449 -91.42172804 22.09017052 -89.44799805 23.11547852 C-86.55571743 24.6161207 -83.65247111 26.09329274 -80.74609375 27.56640625 C-79.43190712 28.25833824 -79.43190712 28.25833824 -78.09117126 28.96424866 C-77.26242996 29.3789592 -76.43368866 29.79366974 -75.57983398 30.22094727 C-74.86198227 30.58986588 -74.14413055 30.95878448 -73.40452576 31.33888245 C-67.64906493 32.92133012 -62.63765951 30.62717515 -57.5456543 28.04077148 C-56.94312332 27.73826477 -56.34059235 27.43575806 -55.71980286 27.12408447 C-53.74979829 26.13229914 -51.78718901 25.12671879 -49.82421875 24.12109375 C-48.44945983 23.42650385 -47.07419185 22.73292069 -45.69844055 22.04029846 C-42.09293714 20.22239434 -38.49327195 18.39323931 -34.89508057 16.56091309 C-29.12001353 13.62204599 -23.33696983 10.69894783 -17.55246925 7.77870369 C-15.53286313 6.75679271 -13.51624168 5.72917091 -11.49992371 4.70079041 C-10.26915218 4.07698299 -9.03830605 3.45332271 -7.80737305 2.82983398 C-6.73150436 2.28213852 -5.65563568 1.73444305 -4.54716492 1.17015076 C-2 0 -2 0 0 0 Z " fill="#F4F4F4" transform="translate(188,46)"/>
<path d="M0 0 C4.74381986 1.58127329 8.96344317 3.36250936 13.375 5.625 C14.81245026 6.35296282 16.24995157 7.08082482 17.6875 7.80859375 C18.41195312 8.17710449 19.13640625 8.54561523 19.8828125 8.92529297 C23.03943953 10.52763063 26.207138 12.10752414 29.375 13.6875 C34.481688 16.23721756 39.58392694 18.79563925 44.68359375 21.359375 C47.05989308 22.55208883 49.43619517 23.74479714 51.8125 24.9375 C52.96476074 25.51781982 54.11702148 26.09813965 55.30419922 26.69604492 C56.38588379 27.23849854 57.46756836 27.78095215 58.58203125 28.33984375 C59.55374268 28.82831787 60.5254541 29.31679199 61.52661133 29.82006836 C64.04239222 31.08249567 64.04239222 31.08249567 67 32 C67 39.59 67 47.18 67 55 C62.97018177 53.65672726 59.62521591 52.43721818 55.90356445 50.57324219 C54.93848465 50.0922406 53.97340485 49.61123901 52.9790802 49.11566162 C51.95086655 48.59796204 50.92265289 48.08026245 49.86328125 47.546875 C48.7880571 47.00903381 47.71283295 46.47119263 46.60502625 45.91705322 C44.3321699 44.77911682 42.06028418 43.63923992 39.78930664 42.49755859 C36.34422524 40.76594616 32.89603184 39.04066609 29.44726562 37.31640625 C27.23158267 36.20610458 25.01608204 35.09543898 22.80078125 33.984375 C21.78268875 33.47477234 20.76459625 32.96516968 19.71565247 32.44012451 C13.06611554 29.09373018 6.51891578 25.59447676 0 22 C0 14.74 0 7.48 0 0 Z " fill="#F4F4F4" transform="translate(53,144)"/>
<path d="M0 0 C14.84782315 6.95923106 29.53305837 14.2060739 44.1875 21.5625 C46.41331655 22.67792378 48.63922747 23.79315926 50.86523438 24.90820312 C56.24457632 27.60330659 61.62264762 30.30092924 67 33 C67 40.26 67 47.52 67 55 C61.19596202 53.06532067 56.13430369 51.27183201 50.8125 48.5 C49.4181474 47.78871218 48.02360527 47.07779581 46.62890625 46.3671875 C45.88656738 45.9865918 45.14422852 45.60599609 44.37939453 45.21386719 C40.01748053 42.98860181 35.63181947 40.81072665 31.25 38.625 C29.38792288 37.69420634 27.5259443 36.76321553 25.6640625 35.83203125 C24.7349707 35.36748535 23.80587891 34.90293945 22.84863281 34.42431641 C15.23242188 30.61621094 7.61621094 26.80810547 0 23 C0 15.41 0 7.82 0 0 Z " fill="#F5F5F5" transform="translate(53,95)"/>
<path d="M0 0 C3.465 1.485 3.465 1.485 7 3 C6.67 3.99 6.34 4.98 6 6 C4.34385343 6.38218767 2.67542976 6.71395102 1 7 C0 6 0 6 -0.0625 2.9375 C-0.041875 1.968125 -0.02125 0.99875 0 0 Z " fill="#EFEFEF" transform="translate(53,95)"/>
</svg>